<?xml version="1.0" standalone="no"?>
<!DOCTYPE svg PUBLIC "-//W3C//DTD SVG 20010904//EN"
 "http://www.w3.org/TR/2001/REC-SVG-20010904/DTD/svg10.dtd">
<svg version="1.0" xmlns="http://www.w3.org/2000/svg"
 width="2500.000000pt" height="1667.000000pt" viewBox="0 0 2500.000000 1667.000000"
 preserveAspectRatio="xMidYMid meet">

<g transform="translate(0.000000,1667.000000) scale(0.100000,-0.100000)"
fill="#000000" stroke="none">
<path d="M12150 14243 l-105 -45 -135 16 c-167 20 -221 13 -329 -48 -42 -24
-123 -64 -181 -91 -218 -100 -307 -163 -543 -383 -139 -130 -144 -132 -269
-132 -42 0 -59 -7 -121 -48 -40 -27 -121 -77 -182 -113 -301 -177 -380 -365
-276 -666 l29 -83 -20 -96 c-29 -147 -56 -189 -153 -245 -49 -27 -51 -31 -117
-178 -37 -82 -73 -173 -79 -202 -16 -74 -7 -156 34 -294 20 -66 52 -182 72
-258 l37 -139 -125 -127 c-130 -132 -170 -193 -186 -277 -8 -43 -6 -52 45
-153 65 -127 100 -257 110 -403 5 -74 11 -109 23 -123 10 -11 30 -62 46 -113
16 -52 31 -90 32 -85 2 5 -8 42 -22 83 -30 87 -30 102 -7 154 l18 40 90 -108
91 -108 -24 -96 c-32 -125 -33 -219 -5 -292 12 -30 30 -89 41 -131 11 -42 49
-149 86 -239 86 -211 107 -290 104 -401 l-3 -86 56 -74 c215 -287 325 -534
370 -829 14 -98 17 -420 4 -594 l-8 -119 -47 -50 c-66 -71 -269 -256 -381
-346 -176 -141 -331 -236 -646 -392 -165 -82 -305 -149 -311 -149 -16 0 -356
524 -628 967 -55 89 -101 160 -103 159 -4 -5 82 -241 154 -418 255 -633 647
-1392 1014 -1963 543 -846 1146 -1532 1737 -1974 346 -259 765 -480 1102 -581
89 -27 107 -24 309 51 440 163 882 441 1290 811 809 733 1585 1867 2181 3187
131 291 361 874 349 886 -2 2 -53 -78 -113 -178 -147 -244 -367 -595 -498
-795 l-106 -162 -181 90 c-528 264 -758 419 -1061 717 l-146 143 -5 188 c-18
618 48 882 319 1291 98 148 103 159 118 240 20 105 59 264 86 351 48 149 113
327 129 350 47 69 51 145 16 293 -13 56 -27 116 -30 132 -6 28 1 37 92 122
l99 92 12 -41 c7 -22 14 -38 16 -36 1 1 14 66 29 143 30 167 54 238 135 411
33 72 61 136 61 142 0 7 -74 105 -165 219 -105 130 -164 212 -161 222 3 9 18
72 35 141 16 69 46 175 67 235 31 93 37 123 37 195 -1 91 0 90 -96 324 -44
108 -45 109 -90 126 -103 39 -147 101 -172 244 -21 124 -20 139 21 200 66 100
79 191 43 299 -46 137 -153 245 -409 412 l-155 102 -109 7 c-125 8 -136 13
-205 100 -62 77 -202 213 -261 253 -84 57 -165 91 -288 123 -31 8 -64 30 -117
80 -101 93 -156 114 -290 113 -68 0 -121 -7 -166 -20 l-67 -20 -118 48 -119
48 -250 -1 -250 0 -105 -45z m374 -1560 c49 -158 60 -257 61 -538 0 -158 -5
-295 -13 -350 -19 -139 -54 -297 -63 -288 -18 18 -71 200 -85 295 -21 138 -14
306 26 623 17 138 34 269 36 293 3 23 7 42 9 42 2 0 15 -35 29 -77z m266 -182
l115 -75 114 -7 c131 -9 201 -36 245 -94 24 -31 26 -41 26 -142 l0 -109 55
-54 54 -53 11 29 c6 16 39 102 72 192 33 89 62 162 63 162 2 0 55 -27 119 -61
l116 -61 0 -148 0 -149 78 -45 c42 -25 82 -46 87 -46 6 0 32 50 59 110 28 62
55 110 62 110 8 0 45 -30 82 -67 142 -140 164 -266 87 -498 -5 -18 4 -24 86
-50 l92 -30 139 -237 140 -237 -102 -133 c-56 -73 -106 -133 -111 -132 -5 1
-18 2 -29 3 -11 0 -41 20 -65 42 -25 23 -48 40 -50 37 -3 -3 12 -21 34 -41 23
-21 61 -76 92 -134 29 -54 54 -100 57 -103 2 -3 45 40 96 94 l92 99 43 -38
c52 -47 141 -221 141 -276 0 -24 -19 -74 -60 -153 -111 -216 -113 -290 -10
-406 33 -37 66 -73 74 -79 27 -22 -76 -298 -219 -586 -245 -497 -364 -789
-494 -1211 -27 -87 -70 -190 -126 -304 l-85 -171 -56 30 -56 30 -148 -80 -147
-81 -123 -139 c-242 -274 -337 -351 -658 -533 l-170 -96 -108 0 -107 0 -141
87 c-431 265 -584 393 -698 581 l-51 85 -116 55 c-64 31 -181 81 -261 112
l-144 55 -67 150 c-69 155 -92 220 -154 440 -55 197 -150 425 -332 800 -138
283 -326 716 -335 773 -2 10 23 31 67 57 62 37 72 47 88 91 14 35 18 69 15
119 -3 63 -11 86 -75 220 -39 83 -74 161 -76 174 -4 17 16 57 80 160 47 75 87
138 89 140 2 2 45 -35 95 -83 50 -47 95 -86 99 -86 9 0 19 23 30 69 11 46 -9
117 -50 177 -88 128 -120 179 -120 194 1 8 60 116 134 240 l132 225 91 28 90
29 -20 61 c-15 46 -21 90 -21 167 -1 94 2 111 26 163 15 32 39 73 54 90 31 37
115 107 129 107 6 0 25 -35 44 -78 51 -117 56 -122 99 -122 39 0 67 14 115 58
l27 26 0 142 0 142 114 61 c63 34 116 61 119 61 2 0 35 -83 72 -185 37 -102
71 -185 74 -185 3 0 28 17 55 38 l50 38 -3 110 c-2 107 -2 110 27 150 49 67
155 104 302 104 51 0 62 5 160 70 90 60 106 67 114 53 16 -29 -1 -241 -29
-358 -50 -208 -64 -312 -65 -465 0 -210 43 -439 121 -642 l30 -78 119 0 119 0
21 30 c64 89 123 280 141 453 15 137 6 424 -15 542 -9 50 -39 194 -66 322 -28
127 -50 234 -50 238 0 7 -4 10 140 -84z m-2826 -2853 c-14 -48 -23 -54 -24
-15 0 27 4 37 16 37 11 0 14 -6 8 -22z m5108 -23 c2 -19 3 -35 1 -35 -3 0 -33
57 -33 65 0 3 6 5 14 5 8 0 15 -14 18 -35z m-816 -2390 c29 -71 37 -134 25
-208 -17 -105 -402 -1310 -504 -1577 -121 -319 -121 -321 -122 -530 0 -155 4
-205 24 -308 13 -67 22 -124 20 -126 -2 -2 -38 -7 -80 -10 l-75 -7 -57 120
c-31 67 -61 121 -67 121 -21 0 -76 -28 -108 -55 -18 -15 -64 -73 -102 -130
-71 -104 -121 -150 -176 -161 -27 -5 -31 -2 -47 31 -22 47 -22 128 2 196 26
74 128 311 205 477 194 414 291 744 380 1281 49 291 78 404 136 528 82 175
177 291 281 344 71 36 116 47 192 48 57 1 58 0 73 -34z m-3174 -26 c194 -125
294 -431 334 -1029 6 -99 12 -119 99 -360 114 -313 122 -334 196 -492 33 -70
96 -218 140 -330 134 -336 203 -461 324 -588 76 -79 95 -115 95 -175 0 -73
-12 -87 -66 -79 -35 5 -43 3 -40 -7 18 -52 76 -345 76 -383 0 -39 -16 -133
-25 -144 -1 -2 -96 50 -211 114 -298 166 -448 268 -566 385 -54 53 -98 101
-98 106 0 11 71 37 165 60 88 21 343 22 463 1 45 -8 82 -12 82 -10 0 3 -34 49
-74 103 -41 54 -87 120 -102 146 -65 115 -96 155 -215 279 -128 134 -258 290
-297 355 -52 86 -534 1536 -561 1686 -11 59 -40 328 -41 371 0 22 2 22 137 22
136 0 136 0 185 -31z m2078 -589 c0 -108 -17 -255 -41 -348 -25 -101 -96 -244
-154 -309 -91 -104 -258 -192 -427 -227 -74 -15 -79 -15 -132 4 -117 44 -216
129 -365 314 -53 65 -71 95 -67 110 2 12 8 82 12 157 l7 136 -65 89 c-87 119
-88 121 -37 90 174 -109 396 -176 579 -176 206 0 443 77 625 203 28 19 53 35
58 36 4 1 7 -35 7 -79z m1425 -301 l7 -72 74 7 73 7 165 -128 c91 -70 165
-132 165 -137 2 -17 -90 -135 -153 -200 -64 -65 -203 -174 -259 -203 -28 -14
-29 -14 -23 2 3 10 18 62 33 116 23 86 24 101 12 118 -8 11 -58 74 -113 140
l-98 121 -1 88 c-1 66 4 95 18 122 18 35 70 90 85 90 4 0 11 -32 15 -71z
m-4051 -80 c3 -17 6 -56 6 -86 0 -47 -5 -60 -39 -106 -21 -29 -47 -68 -56 -87
-36 -72 -105 -166 -140 -189 -20 -13 -59 -30 -87 -37 l-51 -14 -41 37 c-23 20
-83 76 -134 124 l-92 87 87 70 c207 164 345 229 494 231 44 1 47 0 53 -30z
m2146 -921 c0 -54 -5 -81 -19 -104 -40 -65 -145 -83 -236 -40 -47 21 -53 29
-79 90 -16 37 -27 68 -25 71 4 3 305 51 342 54 15 1 17 -9 17 -71z m1504 -395
c-47 -65 -91 -118 -97 -118 -18 0 -66 104 -79 168 -13 69 4 176 48 294 l27 73
93 -150 94 -150 -86 -117z m-3212 338 c35 -66 37 -144 7 -211 -30 -66 -92
-160 -104 -157 -18 6 -85 148 -85 180 0 18 9 52 20 76 26 57 111 172 124 168
6 -2 23 -27 38 -56z m545 -503 c7 -78 -9 -118 -96 -247 l-59 -89 -16 57 c-30
106 -19 143 83 280 43 57 66 80 73 73 6 -6 12 -39 15 -74z m2133 -515 c-81
-138 -198 -264 -326 -349 -156 -104 -301 -156 -469 -170 l-87 -7 16 32 c9 17
37 93 62 169 61 185 108 261 208 334 l39 28 289 0 290 0 -22 -37z"/>
<path d="M11469 10700 c-185 -16 -464 -91 -606 -164 -91 -46 -148 -88 -238
-175 -78 -76 -90 -91 -52 -67 57 37 381 112 630 145 185 25 361 10 459 -40 48
-25 144 -112 163 -149 10 -19 45 -164 45 -185 0 -2 -48 16 -108 40 -122 49
-200 71 -287 80 -62 7 -182 -8 -198 -24 -5 -5 36 -24 105 -46 62 -21 117 -41
122 -45 8 -8 -20 -110 -30 -110 -3 0 -46 16 -96 35 -50 20 -93 33 -96 30 -10
-10 29 -92 56 -118 41 -40 90 -55 206 -66 150 -15 218 -47 257 -123 19 -37 23
-40 52 -34 110 22 216 105 314 244 l51 73 -83 192 -84 192 112 10 c89 8 112
13 112 25 0 8 -4 57 -9 109 l-8 93 -67 31 c-58 27 -82 31 -191 38 -238 14
-435 17 -531 9z m276 -756 c-62 -49 -150 -58 -218 -21 l-42 22 60 6 c33 3 96
6 140 7 74 1 79 0 60 -14z"/>
<path d="M13003 10687 l-172 -10 -45 -124 c-26 -69 -46 -128 -46 -133 0 -11
16 -16 140 -36 58 -9 109 -21 114 -25 8 -7 -298 -511 -315 -517 -5 -2 -9 -8
-9 -13 0 -6 4 -8 9 -5 5 4 23 -5 39 -19 28 -24 29 -27 19 -61 -10 -32 -7 -42
24 -104 19 -38 36 -69 39 -70 3 0 31 61 63 134 l59 135 51 -21 c29 -11 63 -25
77 -31 14 -5 34 -9 44 -8 11 2 67 6 125 9 l106 7 -70 39 c-38 21 -80 45 -93
53 l-23 14 55 77 c30 42 56 77 59 77 2 0 69 -45 148 -101 178 -125 173 -121
166 -98 -3 11 -9 50 -13 87 l-6 68 28 -7 c16 -4 47 -15 69 -25 55 -25 89 -24
122 6 l28 24 -27 51 -28 50 35 0 c48 0 91 -24 110 -60 9 -17 21 -70 27 -118 6
-48 14 -93 17 -99 5 -9 51 18 146 83 77 53 142 98 144 100 2 2 -39 92 -92 199
-53 107 -95 195 -94 195 22 0 413 -112 425 -122 29 -23 -46 68 -83 100 -19 17
-63 43 -97 59 -35 15 -126 60 -203 99 -247 127 -376 155 -695 152 -113 -1
-282 -6 -377 -11z m718 -251 c72 -16 174 -62 201 -93 24 -27 48 -87 48 -123
l0 -30 -228 0 c-300 0 -377 -15 -457 -90 -21 -20 -48 -32 -89 -39 -96 -18
-108 -15 -138 28 -16 22 -28 42 -28 45 0 3 46 56 102 118 101 112 103 113 182
141 156 54 289 68 407 43z"/>
<path d="M10863 10091 l-73 -36 144 -107 c188 -138 196 -133 85 53 -40 66 -75
121 -78 123 -3 2 -39 -13 -78 -33z"/>
<path d="M12217 9853 c-24 -27 -68 -156 -57 -167 7 -7 10 -2 10 12 0 17 6 22
25 22 21 0 25 -5 25 -31 0 -28 -2 -31 -28 -27 l-28 4 26 -48 25 -48 5 47 c5
46 6 47 55 63 l49 17 -48 12 -49 12 54 55 c34 35 59 52 69 49 9 -4 11 -3 5 3
-9 9 -101 42 -115 42 -4 0 -14 -8 -23 -17z"/>
<path d="M12220 9550 c0 -12 57 -14 63 -2 3 4 -10 8 -29 9 -19 2 -34 -2 -34
-7z"/>
<path d="M12735 9550 c3 -5 19 -10 36 -10 16 0 29 5 29 10 0 6 -16 10 -36 10
-21 0 -33 -4 -29 -10z"/>
<path d="M12130 9429 c0 -5 5 -7 10 -4 6 3 10 8 10 11 0 2 -4 4 -10 4 -5 0
-10 -5 -10 -11z"/>
<path d="M12875 9430 c-3 -5 -1 -10 4 -10 6 0 11 5 11 10 0 6 -2 10 -4 10 -3
0 -8 -4 -11 -10z"/>
<path d="M12118 9221 c-134 -134 -168 -173 -174 -201 -3 -19 -17 -55 -29 -80
-32 -64 -37 -95 -24 -143 14 -53 94 -184 117 -191 249 -72 302 -99 414 -211
l83 -84 100 90 c114 103 203 152 349 190 l89 24 45 93 c51 104 59 165 30 217
-9 17 -33 63 -52 104 -29 59 -53 90 -113 145 -42 39 -110 104 -151 144 -40 39
-75 72 -77 72 -2 0 2 -12 10 -27 17 -38 48 -322 41 -375 -22 -147 -66 -245
-151 -336 -62 -67 -153 -131 -163 -115 -4 5 -45 58 -91 116 l-84 107 -152 0
-153 0 -16 72 c-34 152 -36 143 26 174 l54 26 83 -42 c46 -22 85 -40 87 -38 2
2 15 89 29 194 14 104 30 200 36 213 5 13 8 24 7 25 -2 1 -78 -72 -170 -163z
m910 -218 l49 -27 -13 -80 c-7 -45 -15 -95 -18 -111 l-6 -30 -110 9 c-104 8
-111 10 -116 33 -9 33 4 92 28 131 21 35 103 101 125 102 7 0 35 -12 61 -27z"/>
<path d="M12484 8136 c-10 -26 4 -48 28 -44 17 2 23 10 23 28 0 18 -6 26 -23
28 -13 2 -25 -3 -28 -12z"/>
<path d="M12223 8125 c-66 -18 -133 -52 -249 -126 -96 -61 -155 -89 -185 -89
-31 0 -261 -120 -256 -133 2 -7 14 -42 26 -79 l22 -67 82 40 c101 48 132 49
226 4 193 -93 335 -125 581 -132 265 -7 421 23 641 123 126 58 177 60 243 9
35 -27 52 -34 71 -29 32 8 32 8 40 78 8 58 7 58 -14 46 -27 -14 -26 -15 -121
99 l-75 90 -50 0 c-43 0 -74 13 -213 83 l-163 83 -84 0 c-74 0 -118 -11 -90
-22 6 -2 46 -23 90 -48 l80 -44 -314 -1 c-173 0 -312 2 -309 5 2 3 48 29 102
59 82 45 94 54 74 60 -37 9 -99 6 -155 -9z m342 -286 c265 3 445 -8 445 -28 0
-8 -123 -70 -175 -89 -106 -39 -161 -47 -335 -46 -161 0 -182 3 -263 27 -88
27 -200 78 -212 96 -3 6 11 19 32 31 34 18 48 19 133 13 52 -5 221 -6 375 -4z"/>
<path d="M13589 7640 c-14 -110 -22 -200 -18 -200 17 0 70 101 79 151 8 41 7
73 -6 138 -8 47 -19 91 -23 98 -3 7 -18 -77 -32 -187z"/>
<path d="M11376 7737 c-15 -78 -16 -103 -7 -150 12 -56 72 -160 79 -138 6 17
-39 364 -48 374 -4 4 -15 -35 -24 -86z"/>
<path d="M12380 7460 c0 -5 7 -10 15 -10 8 0 15 5 15 10 0 6 -7 10 -15 10 -8
0 -15 -4 -15 -10z"/>
<path d="M15291 10057 c-13 -39 -36 -95 -52 -123 -33 -59 -35 -80 -12 -132
l17 -37 6 80 c4 48 20 120 40 179 17 53 30 99 28 101 -2 3 -15 -28 -27 -68z"/>
<path d="M9766 9860 c4 -47 8 -87 10 -89 7 -7 34 68 34 93 0 14 -11 38 -25 53
l-25 28 6 -85z"/>
</g>
</svg>
